<svg id="svg" version="1.1" xmlns="http://www.w3.org/2000/svg" xmlns:xlink="http://www.w3.org/1999/xlink" width="400" height="340.15748031496065" viewBox="0, 0, 400,340.15748031496065"><g id="svgg"><path id="path0" d="M20.284 0.295 C 20.183 0.458,19.446 0.538,18.646 0.473 C 17.619 0.389,17.342 0.450,17.702 0.682 C 18.088 0.930,17.937 1.012,17.086 1.016 C 16.423 1.019,16.046 1.161,16.170 1.362 C 16.286 1.549,16.231 1.702,16.048 1.702 C 15.866 1.702,15.639 1.511,15.545 1.277 C 15.440 1.018,15.362 1.081,15.346 1.436 C 15.329 1.812,15.136 1.951,14.809 1.825 C 14.476 1.698,14.298 1.835,14.298 2.218 C 14.298 2.690,14.201 2.727,13.811 2.403 C 13.421 2.079,13.246 2.144,12.934 2.728 C 12.700 3.164,12.342 3.380,12.041 3.264 C 11.719 3.141,11.626 3.213,11.783 3.466 C 11.945 3.729,11.839 3.788,11.464 3.645 C 11.117 3.512,10.933 3.587,10.983 3.842 C 11.027 4.069,10.872 4.217,10.638 4.170 C 10.404 4.123,10.213 4.233,10.213 4.415 C 10.213 4.596,9.838 4.941,9.380 5.181 C 8.922 5.421,8.539 5.770,8.529 5.957 C 8.519 6.145,8.357 6.317,8.170 6.340 C 7.983 6.364,7.681 6.402,7.500 6.426 C 7.319 6.449,7.269 6.724,7.389 7.038 C 7.553 7.464,7.469 7.554,7.055 7.396 C 6.679 7.251,6.559 7.331,6.680 7.646 C 6.783 7.915,6.562 8.203,6.152 8.333 C 5.764 8.456,5.447 8.781,5.447 9.055 C 5.447 9.329,5.218 9.641,4.938 9.748 C 4.658 9.856,4.514 10.081,4.618 10.248 C 4.721 10.416,4.628 10.553,4.409 10.553 C 4.191 10.553,4.100 10.783,4.208 11.064 C 4.316 11.345,4.266 11.574,4.097 11.574 C 3.929 11.574,3.693 11.881,3.574 12.255 C 3.456 12.630,3.130 12.936,2.851 12.936 C 2.571 12.936,2.437 13.089,2.553 13.277 C 2.669 13.464,2.563 13.619,2.318 13.622 C 1.963 13.626,1.966 13.687,2.334 13.920 C 2.661 14.127,2.685 14.282,2.414 14.449 C 2.203 14.579,2.120 14.828,2.227 15.002 C 2.335 15.177,2.245 15.319,2.026 15.319 C 1.808 15.319,1.717 15.549,1.825 15.830 C 1.948 16.151,1.822 16.340,1.484 16.340 C 1.073 16.340,1.001 16.552,1.174 17.244 C 1.318 17.817,1.246 18.244,0.978 18.410 C 0.746 18.553,0.526 19.455,0.491 20.413 C 0.455 21.372,0.330 22.252,0.212 22.369 C -0.093 22.675,-0.049 315.504,0.257 315.693 C 0.397 315.779,0.492 316.362,0.469 316.989 C 0.446 317.615,0.580 318.319,0.766 318.553 C 1.002 318.849,0.969 318.979,0.657 318.979 C 0.377 318.979,0.445 319.150,0.838 319.438 C 1.183 319.690,1.365 320.060,1.241 320.260 C 1.118 320.459,1.209 320.700,1.445 320.795 C 1.785 320.932,1.785 320.973,1.447 320.994 C 1.213 321.009,1.021 321.174,1.021 321.362 C 1.021 321.549,1.136 321.684,1.277 321.662 C 2.033 321.542,2.234 321.818,2.197 322.926 C 2.172 323.664,2.336 324.219,2.610 324.324 C 2.860 324.420,3.066 324.750,3.069 325.058 C 3.074 325.543,3.118 325.550,3.404 325.106 C 3.670 324.695,3.735 324.747,3.739 325.374 C 3.742 325.802,3.992 326.529,4.294 326.991 C 4.732 327.658,4.749 327.830,4.380 327.831 C 4.124 327.832,4.399 328.128,4.991 328.488 C 5.583 328.849,6.167 329.461,6.290 329.849 C 6.413 330.236,6.733 330.553,7.002 330.553 C 7.270 330.553,7.489 330.690,7.489 330.858 C 7.489 331.422,9.510 333.330,9.871 333.107 C 10.068 332.985,10.208 333.012,10.181 333.166 C 10.062 333.852,10.251 334.009,10.723 333.617 C 11.142 333.270,11.234 333.293,11.234 333.746 C 11.234 334.049,11.387 334.317,11.574 334.340 C 11.762 334.364,12.080 334.402,12.283 334.426 C 12.485 334.449,12.847 334.736,13.086 335.064 C 13.326 335.391,13.854 335.660,14.261 335.660 C 14.667 335.660,15.088 335.888,15.195 336.168 C 15.303 336.448,15.528 336.592,15.695 336.489 C 15.863 336.385,16.000 336.429,16.000 336.587 C 16.000 336.744,16.406 336.906,16.902 336.947 C 17.398 336.988,18.040 337.213,18.329 337.447 C 18.751 337.789,18.803 337.787,18.594 337.439 C 18.423 337.155,18.780 337.213,19.635 337.610 C 20.876 338.185,27.792 338.205,168.613 338.043 C 249.835 337.949,316.407 337.990,316.550 338.133 C 316.693 338.276,317.322 338.138,317.948 337.826 C 318.574 337.514,319.521 337.243,320.053 337.225 C 320.585 337.207,321.020 337.087,321.021 336.959 C 321.021 336.831,321.400 336.795,321.864 336.879 C 322.494 336.993,322.658 336.908,322.518 336.541 C 322.376 336.172,322.520 336.100,323.094 336.250 C 323.703 336.409,323.816 336.336,323.646 335.893 C 323.473 335.443,323.621 335.358,324.410 335.450 C 325.091 335.529,325.338 335.433,325.223 335.133 C 325.122 334.868,325.459 334.615,326.104 334.473 C 326.679 334.347,327.149 334.108,327.149 333.941 C 327.149 333.775,327.404 333.736,327.715 333.856 C 328.096 334.002,328.201 333.943,328.036 333.675 C 327.900 333.456,327.959 333.277,328.166 333.277 C 328.374 333.277,328.896 332.896,329.327 332.431 C 329.758 331.966,330.235 331.698,330.386 331.835 C 330.538 331.973,330.545 331.882,330.401 331.634 C 330.131 331.166,331.233 329.872,331.901 329.872 C 332.096 329.872,332.258 329.604,332.261 329.277 C 332.265 328.767,332.314 328.755,332.596 329.191 C 332.866 329.609,332.927 329.570,332.931 328.978 C 332.937 328.148,333.705 327.372,334.148 327.748 C 334.312 327.886,334.240 327.732,333.990 327.404 C 333.598 326.892,333.614 326.809,334.106 326.809 C 334.421 326.809,334.586 326.659,334.474 326.477 C 334.361 326.295,334.568 325.889,334.934 325.576 C 335.300 325.263,335.520 324.799,335.423 324.546 C 335.326 324.292,335.416 324.085,335.623 324.085 C 335.830 324.085,336.000 323.855,336.000 323.574 C 336.000 323.294,336.191 323.061,336.426 323.059 C 336.709 323.055,336.681 322.943,336.340 322.723 C 336.000 322.503,335.972 322.392,336.255 322.388 C 336.489 322.385,336.681 322.144,336.681 321.852 C 336.681 321.560,336.809 321.400,336.965 321.497 C 337.258 321.678,337.278 321.596,337.395 319.756 C 337.439 319.065,337.603 318.744,337.839 318.886 C 338.044 319.009,337.983 318.821,337.702 318.468 C 337.421 318.115,337.361 317.928,337.569 318.052 C 337.825 318.206,337.914 317.837,337.847 316.899 C 337.770 315.819,337.855 315.560,338.235 315.706 C 338.655 315.867,338.721 296.108,338.723 169.350 C 338.724 71.659,338.611 22.809,338.384 22.809 C 338.196 22.809,338.043 22.646,338.043 22.448 C 338.043 22.250,338.234 22.199,338.468 22.336 C 338.702 22.473,338.646 22.291,338.342 21.931 C 338.039 21.571,337.862 21.080,337.949 20.840 C 338.036 20.599,337.932 20.192,337.718 19.934 C 337.426 19.582,337.427 19.404,337.722 19.222 C 337.999 19.050,338.007 18.912,337.747 18.751 C 337.545 18.626,337.321 18.224,337.251 17.858 C 337.054 16.827,336.629 15.892,336.033 15.176 C 335.734 14.816,335.681 14.633,335.915 14.770 C 336.149 14.907,336.340 14.857,336.340 14.658 C 336.340 14.460,336.143 14.298,335.902 14.298 C 335.661 14.298,335.438 13.955,335.407 13.537 C 335.375 13.118,335.189 12.723,334.994 12.658 C 334.798 12.592,334.638 12.236,334.638 11.866 C 334.638 11.444,334.492 11.284,334.244 11.437 C 333.972 11.606,333.912 11.444,334.051 10.913 C 334.161 10.491,334.173 10.225,334.076 10.321 C 333.746 10.651,332.655 9.434,332.842 8.946 C 332.962 8.634,332.841 8.499,332.508 8.570 C 331.898 8.700,330.112 6.907,330.395 6.448 C 330.502 6.276,330.380 6.216,330.124 6.314 C 329.859 6.415,329.470 6.137,329.218 5.666 C 328.974 5.211,327.932 4.402,326.901 3.867 C 325.870 3.331,324.947 2.689,324.849 2.440 C 324.701 2.061,324.623 2.061,324.383 2.440 C 324.167 2.781,324.094 2.736,324.090 2.258 C 324.086 1.791,323.905 1.670,323.404 1.801 C 322.950 1.920,322.723 1.811,322.723 1.475 C 322.723 1.171,322.487 1.025,322.128 1.106 C 321.800 1.181,321.072 1.000,320.511 0.706 C 319.353 0.099,20.658 -0.310,20.284 0.295 M78.130 47.321 C 78.375 47.525,79.011 47.628,79.543 47.552 C 80.075 47.475,80.762 47.540,81.069 47.698 C 81.375 47.855,82.099 48.019,82.677 48.063 C 83.254 48.107,83.802 48.338,83.893 48.577 C 83.985 48.815,84.297 48.919,84.587 48.807 C 84.878 48.696,85.346 48.796,85.627 49.030 C 85.909 49.264,86.405 49.474,86.730 49.497 C 87.784 49.571,89.544 50.542,89.383 50.961 C 89.291 51.201,89.423 51.294,89.704 51.186 C 89.966 51.086,90.533 51.265,90.963 51.586 C 91.634 52.086,91.648 52.136,91.064 51.938 C 90.410 51.717,90.407 51.732,90.991 52.322 C 91.521 52.858,91.640 52.871,91.922 52.426 C 92.197 51.990,92.246 52.003,92.250 52.511 C 92.253 52.838,92.416 53.106,92.612 53.106 C 92.808 53.106,93.357 53.528,93.831 54.043 C 94.305 54.557,94.595 54.787,94.475 54.553 C 94.356 54.319,94.341 54.128,94.443 54.128 C 94.546 54.128,94.860 54.681,95.143 55.356 C 95.485 56.175,95.818 56.523,96.143 56.398 C 96.412 56.295,96.814 56.431,97.038 56.701 C 97.262 56.971,97.348 57.191,97.230 57.191 C 97.112 57.191,97.478 57.675,98.043 58.266 C 98.608 58.858,99.011 59.401,98.938 59.473 C 98.866 59.546,99.252 60.051,99.797 60.595 C 100.584 61.383,100.744 61.781,100.579 62.537 C 100.419 63.268,100.455 63.371,100.733 62.979 C 101.045 62.540,101.097 62.555,101.101 63.084 C 101.104 63.423,101.242 63.616,101.408 63.513 C 101.574 63.410,101.694 63.516,101.674 63.748 C 101.609 64.492,102.590 67.225,103.015 67.489 C 103.241 67.629,103.346 68.051,103.247 68.427 C 103.149 68.802,103.262 69.343,103.498 69.627 C 103.734 69.911,103.838 70.233,103.730 70.341 C 103.621 70.449,103.665 70.886,103.827 71.311 C 104.015 71.807,103.983 72.221,103.737 72.467 C 103.452 72.752,103.459 72.851,103.762 72.851 C 104.245 72.851,104.349 77.807,103.871 78.102 C 103.707 78.203,103.603 79.200,103.641 80.317 C 103.683 81.589,103.582 82.270,103.371 82.139 C 103.173 82.017,103.122 82.161,103.247 82.487 C 103.364 82.794,103.272 83.240,103.041 83.480 C 102.811 83.719,102.631 84.145,102.642 84.426 C 102.653 84.706,102.397 85.385,102.072 85.933 C 101.748 86.482,101.567 87.069,101.672 87.238 C 101.776 87.407,101.424 88.016,100.888 88.591 C 100.353 89.166,100.108 89.527,100.343 89.393 C 100.683 89.198,100.688 89.330,100.367 90.034 C 100.145 90.521,99.782 90.850,99.561 90.765 C 99.339 90.680,99.157 90.866,99.157 91.178 C 99.157 92.337,99.055 92.631,98.723 92.426 C 98.536 92.310,98.383 92.449,98.383 92.735 C 98.383 93.080,98.193 93.182,97.816 93.038 C 97.455 92.899,97.333 92.955,97.479 93.191 C 97.605 93.395,97.479 93.792,97.198 94.073 C 96.811 94.459,96.790 94.625,97.109 94.754 C 97.351 94.852,97.268 94.936,96.916 94.952 C 96.577 94.967,96.379 95.107,96.476 95.263 C 96.573 95.419,96.122 95.800,95.475 96.109 C 94.827 96.417,94.298 96.826,94.298 97.016 C 94.298 97.206,94.052 97.362,93.751 97.362 C 93.416 97.362,93.276 97.551,93.391 97.850 C 93.519 98.182,93.259 98.408,92.576 98.557 C 92.025 98.678,91.574 98.919,91.574 99.091 C 91.574 99.263,91.345 99.404,91.064 99.404 C 90.783 99.404,90.553 99.557,90.553 99.745 C 90.553 99.932,90.314 100.085,90.022 100.085 C 89.707 100.085,89.591 100.245,89.735 100.479 C 89.902 100.749,89.748 100.813,89.245 100.681 C 88.778 100.559,88.511 100.646,88.511 100.922 C 88.511 101.159,88.166 101.332,87.745 101.305 C 87.323 101.278,86.749 101.501,86.468 101.801 C 86.069 102.227,83.335 103.241,82.383 103.316 C 82.289 103.324,81.998 103.466,81.735 103.632 C 81.378 103.858,81.329 103.814,81.545 103.457 C 81.776 103.073,81.735 103.058,81.333 103.382 C 81.059 103.604,80.378 103.860,79.821 103.950 C 79.264 104.040,78.809 104.137,78.809 104.164 C 78.809 104.191,78.313 104.263,77.707 104.322 C 77.010 104.391,76.685 104.301,76.823 104.078 C 76.943 103.883,76.893 103.816,76.712 103.928 C 75.931 104.411,69.013 104.060,68.836 103.529 C 68.766 103.320,68.177 103.149,67.526 103.149 C 66.867 103.149,66.431 103.006,66.542 102.826 C 66.652 102.649,66.431 102.563,66.052 102.637 C 65.616 102.720,65.362 102.588,65.362 102.278 C 65.362 101.993,65.034 101.787,64.579 101.787 C 64.148 101.787,63.612 101.603,63.387 101.379 C 63.163 101.154,62.979 101.107,62.979 101.274 C 62.979 101.440,62.738 101.280,62.443 100.916 C 62.148 100.553,62.003 100.445,62.120 100.677 C 62.260 100.954,62.153 101.029,61.807 100.897 C 61.517 100.786,61.375 100.541,61.491 100.353 C 61.623 100.140,61.399 100.098,60.894 100.241 C 60.290 100.412,60.212 100.383,60.586 100.126 C 61.010 99.834,60.984 99.743,60.416 99.531 C 59.451 99.170,57.875 97.973,58.032 97.719 C 58.106 97.600,57.847 97.479,57.458 97.450 C 57.068 97.420,56.581 97.213,56.375 96.989 C 56.094 96.683,56.120 96.649,56.478 96.854 C 56.799 97.037,56.876 96.997,56.713 96.733 C 56.580 96.517,56.168 96.340,55.799 96.340 C 55.430 96.340,55.030 96.072,54.910 95.745 C 54.790 95.417,54.414 94.786,54.074 94.343 C 53.734 93.900,53.540 93.402,53.642 93.237 C 53.744 93.071,53.625 92.936,53.379 92.936 C 52.891 92.936,51.888 91.586,52.025 91.114 C 52.071 90.954,51.738 90.494,51.284 90.092 C 50.830 89.690,50.355 89.017,50.228 88.596 C 50.101 88.174,49.854 87.830,49.679 87.830 C 49.505 87.830,49.380 87.715,49.402 87.574 C 49.500 86.954,49.339 86.442,49.094 86.593 C 48.848 86.746,48.727 86.210,48.663 84.681 C 48.650 84.353,48.457 84.083,48.234 84.080 C 47.993 84.077,48.035 83.942,48.340 83.745 C 48.734 83.490,48.746 83.413,48.389 83.409 C 48.128 83.407,48.009 83.191,48.115 82.916 C 48.218 82.647,48.128 82.369,47.915 82.298 C 47.701 82.227,47.502 81.413,47.472 80.489 C 47.442 79.565,47.297 78.364,47.149 77.822 C 46.932 77.027,46.972 76.887,47.355 77.106 C 47.739 77.325,47.748 77.289,47.404 76.918 C 46.908 76.383,46.852 74.940,47.301 74.231 C 47.493 73.927,47.478 73.489,47.261 73.084 C 47.018 72.630,47.020 72.496,47.267 72.649 C 47.497 72.791,47.595 72.371,47.544 71.459 C 47.497 70.604,47.628 69.988,47.878 69.892 C 48.247 69.750,48.263 69.525,47.992 68.255 C 47.840 67.541,48.014 67.032,48.340 67.234 C 48.531 67.352,48.681 67.089,48.681 66.637 C 48.681 65.597,49.979 62.899,50.365 63.138 C 50.527 63.238,50.580 63.013,50.482 62.639 C 50.351 62.138,50.472 61.956,50.939 61.952 C 51.328 61.949,51.427 61.850,51.195 61.697 C 50.696 61.368,51.161 60.085,51.779 60.085 C 52.041 60.085,52.274 59.894,52.298 59.660 C 52.321 59.426,52.360 59.055,52.383 58.837 C 52.406 58.618,52.520 58.535,52.636 58.650 C 52.908 58.922,53.787 58.049,53.787 57.508 C 53.787 57.018,55.673 55.149,56.167 55.149 C 56.356 55.149,56.511 54.996,56.511 54.809 C 56.511 54.621,56.675 54.468,56.875 54.468 C 57.393 54.468,58.119 53.677,57.981 53.263 C 57.917 53.072,58.264 52.882,58.750 52.842 C 59.775 52.757,60.327 52.478,60.126 52.147 C 60.049 52.019,60.200 51.717,60.461 51.476 C 60.722 51.235,60.939 51.158,60.941 51.306 C 60.944 51.454,61.077 51.368,61.237 51.116 C 61.397 50.863,61.912 50.634,62.380 50.605 C 62.913 50.573,63.171 50.392,63.068 50.124 C 62.960 49.844,63.094 49.768,63.451 49.905 C 63.789 50.034,64.002 49.938,64.005 49.653 C 64.009 49.297,64.086 49.308,64.340 49.702 C 64.533 50.000,64.673 50.046,64.676 49.812 C 64.679 49.592,65.140 49.182,65.702 48.902 C 66.308 48.600,66.723 48.536,66.723 48.746 C 66.723 48.941,67.107 48.848,67.577 48.541 C 68.749 47.772,70.225 47.226,69.957 47.660 C 69.820 47.883,70.044 47.886,70.616 47.668 C 71.093 47.487,71.740 47.437,72.053 47.557 C 72.403 47.691,72.538 47.639,72.404 47.422 C 72.101 46.931,77.545 46.835,78.130 47.321 M234.305 123.247 C 234.637 123.263,234.812 123.430,234.695 123.620 C 234.578 123.810,234.801 123.766,235.190 123.523 C 235.724 123.189,235.994 123.177,236.290 123.473 C 236.555 123.738,236.950 123.763,237.509 123.551 C 238.050 123.345,238.264 123.353,238.127 123.575 C 238.012 123.761,238.195 123.890,238.533 123.860 C 239.977 123.735,240.718 123.919,240.465 124.340 C 240.316 124.588,240.477 124.553,240.851 124.255 C 241.225 123.958,241.386 123.922,241.237 124.170 C 241.096 124.404,241.143 124.596,241.342 124.596 C 241.540 124.596,241.702 124.437,241.702 124.243 C 241.702 124.000,241.907 124.000,242.361 124.243 C 242.723 124.437,243.374 124.557,243.807 124.511 C 244.241 124.464,244.570 124.579,244.539 124.766 C 244.508 124.953,244.929 125.106,245.475 125.106 C 246.021 125.106,246.473 124.953,246.479 124.766 C 246.485 124.579,246.676 124.661,246.904 124.950 C 247.139 125.246,247.986 125.519,248.851 125.578 C 249.693 125.635,250.466 125.816,250.568 125.981 C 250.670 126.146,251.053 126.338,251.419 126.408 C 251.785 126.479,252.315 126.634,252.596 126.753 C 252.877 126.873,253.489 127.038,253.957 127.120 C 254.426 127.202,254.847 127.299,254.894 127.336 C 254.940 127.374,255.138 127.423,255.332 127.447 C 255.526 127.470,255.794 127.659,255.927 127.867 C 256.061 128.074,256.428 128.204,256.742 128.156 C 257.074 128.104,257.248 128.241,257.156 128.479 C 257.051 128.755,257.341 128.868,258.030 128.820 C 258.598 128.781,258.975 128.889,258.869 129.061 C 258.763 129.232,258.495 129.282,258.274 129.172 C 258.053 129.061,258.170 129.212,258.533 129.507 C 259.048 129.924,259.254 129.948,259.464 129.617 C 259.627 129.361,259.736 129.339,259.739 129.562 C 259.742 129.766,260.137 130.112,260.617 130.331 C 261.122 130.561,261.401 130.584,261.278 130.386 C 261.162 130.197,261.192 130.043,261.346 130.043 C 261.500 130.043,261.777 130.387,261.962 130.809 C 262.147 131.230,262.425 131.498,262.581 131.404 C 262.736 131.311,263.076 131.617,263.335 132.085 C 263.594 132.553,263.811 132.736,263.818 132.491 C 263.824 132.245,263.985 132.141,264.176 132.259 C 264.366 132.376,264.440 132.605,264.340 132.766 C 264.241 132.927,264.338 133.170,264.558 133.306 C 264.807 133.460,264.865 133.404,264.713 133.159 C 264.580 132.943,264.594 132.768,264.746 132.771 C 265.131 132.778,266.110 133.435,265.746 133.442 C 265.582 133.444,265.641 133.679,265.876 133.962 C 266.111 134.245,266.551 134.437,266.854 134.387 C 267.157 134.338,267.366 134.489,267.319 134.723 C 267.272 134.957,267.455 135.149,267.725 135.149 C 267.996 135.149,268.443 135.472,268.719 135.867 C 269.025 136.303,269.387 136.483,269.642 136.325 C 269.888 136.173,269.976 136.205,269.854 136.403 C 269.597 136.818,270.580 138.289,270.958 138.055 C 271.108 137.962,271.581 138.190,272.008 138.560 C 272.435 138.931,272.647 139.236,272.478 139.239 C 272.309 139.242,272.400 139.393,272.681 139.574 C 273.021 139.794,273.050 139.906,272.766 139.910 C 272.532 139.913,272.340 140.068,272.340 140.255 C 272.340 140.443,272.628 140.596,272.980 140.596 C 273.853 140.596,274.484 141.380,274.000 141.864 C 273.738 142.125,273.819 142.289,274.283 142.436 C 274.640 142.550,275.304 143.389,275.759 144.301 C 276.214 145.213,276.741 145.927,276.931 145.887 C 277.121 145.847,277.162 145.878,277.021 145.957 C 276.881 146.035,276.766 146.325,276.766 146.602 C 276.766 146.878,276.919 147.009,277.106 146.894 C 277.294 146.778,277.447 146.917,277.447 147.203 C 277.447 147.504,277.644 147.648,277.914 147.544 C 278.262 147.410,278.336 147.599,278.205 148.286 C 278.083 148.924,278.149 149.134,278.419 148.967 C 278.676 148.808,278.810 149.051,278.814 149.682 C 278.818 150.425,278.893 150.524,279.149 150.128 C 279.406 149.730,279.480 149.824,279.484 150.553 C 279.487 151.068,279.604 151.491,279.745 151.492 C 279.885 151.493,280.177 151.877,280.394 152.343 C 280.610 152.810,280.650 153.108,280.483 153.004 C 280.315 152.900,280.269 153.053,280.380 153.342 C 280.491 153.632,280.757 153.763,280.972 153.635 C 281.186 153.506,281.153 153.659,280.898 153.973 C 280.502 154.461,280.512 154.575,280.961 154.748 C 281.252 154.859,281.413 155.147,281.321 155.389 C 281.228 155.630,281.363 156.038,281.621 156.297 C 282.269 156.946,282.589 158.297,282.096 158.303 C 281.810 158.307,281.807 158.377,282.082 158.558 C 282.291 158.696,282.569 159.152,282.700 159.572 C 282.831 159.993,283.169 160.567,283.451 160.849 C 283.733 161.131,283.799 161.362,283.599 161.362 C 283.398 161.362,283.234 161.591,283.234 161.872 C 283.234 162.153,283.387 162.383,283.574 162.383 C 283.762 162.383,283.915 162.919,283.915 163.574 C 283.915 164.230,284.062 164.766,284.241 164.766 C 284.420 164.766,284.525 165.302,284.473 165.957 C 284.409 166.772,284.523 167.149,284.834 167.149 C 285.150 167.149,285.224 167.410,285.076 167.999 C 284.959 168.467,284.977 169.118,285.117 169.446 C 285.487 170.315,285.546 171.230,285.219 171.028 C 285.063 170.932,284.936 170.999,284.936 171.178 C 284.936 171.356,285.177 171.594,285.470 171.707 C 285.825 171.843,285.932 172.140,285.788 172.594 C 285.654 173.016,285.726 173.277,285.976 173.277 C 286.274 173.277,286.282 173.396,286.007 173.727 C 285.662 174.143,285.700 175.308,286.079 175.921 C 286.166 176.063,286.287 177.556,286.346 179.238 C 286.405 180.921,286.592 182.396,286.761 182.516 C 286.931 182.636,287.061 184.168,287.052 185.919 C 287.042 187.718,287.194 189.296,287.401 189.545 C 287.664 189.862,287.656 190.098,287.373 190.380 C 286.872 190.881,286.828 197.106,287.325 197.106 C 287.555 197.106,287.665 202.748,287.653 213.957 C 287.642 224.670,287.514 230.809,287.303 230.809 C 287.089 230.809,287.003 240.896,287.060 259.149 L 287.149 287.489 262.638 287.489 L 238.128 287.489 238.120 242.213 C 238.116 217.311,238.076 196.553,238.030 196.085 C 237.985 195.617,237.964 195.004,237.984 194.723 C 238.004 194.443,237.874 193.489,237.694 192.604 C 237.514 191.719,237.500 191.077,237.662 191.177 C 237.825 191.277,237.957 191.035,237.957 190.638 C 237.957 190.242,237.820 190.002,237.653 190.106 C 237.221 190.372,237.051 189.696,237.081 187.834 C 237.097 186.825,236.945 186.159,236.675 186.055 C 236.397 185.948,236.308 185.520,236.424 184.859 C 236.528 184.271,236.457 183.830,236.260 183.830 C 236.070 183.830,235.915 183.354,235.915 182.772 C 235.915 181.956,235.794 181.761,235.387 181.917 C 235.096 182.029,234.942 181.984,235.044 181.819 C 235.147 181.653,235.009 181.091,234.739 180.570 C 234.469 180.050,234.325 179.497,234.420 179.344 C 234.516 179.190,234.431 179.064,234.233 179.064 C 234.035 179.064,233.872 178.823,233.872 178.529 C 233.872 178.235,233.631 177.753,233.337 177.458 C 232.902 177.023,232.886 176.869,233.251 176.637 C 233.580 176.428,233.514 176.349,233.009 176.346 C 232.535 176.342,232.297 176.098,232.259 175.574 C 232.229 175.153,231.890 174.598,231.506 174.341 C 231.122 174.085,230.809 173.681,230.809 173.445 C 230.809 173.058,229.642 172.473,229.034 172.555 C 228.900 172.573,228.874 172.369,228.977 172.102 C 229.082 171.829,228.853 171.422,228.454 171.173 C 228.064 170.929,227.745 170.537,227.745 170.301 C 227.745 170.065,227.582 169.872,227.384 169.872 C 227.186 169.872,227.109 170.011,227.214 170.181 C 227.319 170.351,227.023 170.312,226.556 170.096 C 226.089 169.879,225.706 169.592,225.705 169.457 C 225.703 169.323,225.488 169.295,225.226 169.396 C 224.964 169.496,224.634 169.391,224.492 169.162 C 224.317 168.878,224.377 168.834,224.681 169.021 C 224.962 169.195,225.044 169.163,224.903 168.936 C 224.781 168.737,224.374 168.655,224.000 168.753 C 223.625 168.850,223.319 168.784,223.319 168.605 C 223.319 168.312,222.645 168.048,219.915 167.271 C 218.591 166.894,217.786 166.771,216.705 166.781 C 216.157 166.786,215.544 166.664,215.343 166.508 C 214.839 166.117,208.395 166.104,208.155 166.493 C 208.048 166.667,207.701 166.806,207.384 166.803 C 206.888 166.799,206.879 166.752,207.319 166.468 C 207.735 166.199,207.693 166.137,207.092 166.133 C 206.687 166.130,206.304 166.272,206.241 166.448 C 206.179 166.624,205.338 166.815,204.372 166.872 C 203.407 166.930,202.688 167.092,202.775 167.233 C 202.863 167.374,202.474 167.489,201.913 167.489 C 201.351 167.489,200.797 167.643,200.681 167.830 C 200.565 168.017,200.106 168.170,199.660 168.170 C 199.214 168.170,198.754 168.323,198.638 168.511 C 198.523 168.698,198.045 168.851,197.577 168.851 C 197.095 168.851,196.817 168.999,196.937 169.192 C 197.193 169.607,195.473 170.312,194.817 170.060 C 194.559 169.961,194.434 170.019,194.539 170.189 C 194.776 170.573,193.750 171.644,193.370 171.409 C 193.217 171.315,193.005 171.467,192.897 171.747 C 192.790 172.026,192.477 172.255,192.201 172.255 C 191.925 172.255,191.590 172.432,191.457 172.648 C 191.294 172.913,191.371 172.951,191.692 172.765 C 191.955 172.613,191.787 172.860,191.319 173.315 C 190.792 173.826,190.373 174.009,190.218 173.794 C 190.074 173.594,189.966 173.700,189.963 174.043 C 189.960 174.370,189.842 174.638,189.700 174.638 C 189.559 174.638,189.239 175.098,188.991 175.660 C 188.742 176.221,188.327 176.681,188.067 176.681 C 187.789 176.681,187.676 176.889,187.791 177.189 C 187.902 177.479,187.751 177.786,187.440 177.906 C 187.139 178.021,186.894 178.405,186.894 178.760 C 186.894 179.114,186.715 179.404,186.496 179.404 C 186.278 179.404,186.194 179.499,186.310 179.615 C 186.426 179.731,186.298 180.048,186.026 180.320 C 185.754 180.592,185.532 181.119,185.532 181.491 C 185.532 181.867,185.377 182.072,185.183 181.952 C 184.991 181.834,184.856 181.863,184.883 182.017 C 185.019 182.798,184.811 183.505,184.502 183.314 C 184.058 183.039,184.225 183.915,184.681 184.250 C 184.895 184.407,184.870 184.502,184.615 184.505 C 184.388 184.508,184.269 184.823,184.346 185.222 C 184.447 185.747,184.376 185.844,184.071 185.591 C 183.762 185.334,183.646 185.600,183.606 186.667 C 183.577 187.447,183.475 188.468,183.379 188.936 C 183.284 189.404,183.193 189.988,183.177 190.233 C 183.162 190.478,182.999 190.586,182.815 190.472 C 182.617 190.350,182.481 190.860,182.481 191.729 C 182.482 193.814,182.394 194.383,182.071 194.383 C 181.915 194.383,181.787 194.622,181.787 194.914 C 181.787 195.248,181.945 195.350,182.213 195.189 C 182.502 195.015,182.489 195.118,182.171 195.509 C 181.775 195.997,181.775 196.086,182.171 196.090 C 182.458 196.094,182.505 196.192,182.292 196.346 C 182.101 196.483,181.895 197.590,181.835 198.805 C 181.774 200.020,181.585 201.273,181.415 201.591 C 181.235 201.928,181.106 219.907,181.106 244.739 L 181.106 287.310 156.766 287.400 L 132.425 287.489 132.425 207.564 C 132.426 143.934,132.512 127.606,132.851 127.481 C 133.085 127.394,143.694 127.284,156.426 127.236 L 179.574 127.149 179.480 137.787 C 179.405 146.233,179.475 148.430,179.820 148.449 C 180.060 148.463,179.949 148.605,179.574 148.766 C 179.024 149.003,179.130 149.063,180.134 149.082 C 180.957 149.098,181.442 148.929,181.577 148.578 C 181.709 148.233,181.633 148.120,181.358 148.253 C 181.126 148.365,181.281 148.201,181.702 147.889 C 182.123 147.577,182.468 147.116,182.468 146.865 C 182.468 146.615,182.791 146.109,183.185 145.741 C 183.580 145.374,183.800 144.908,183.676 144.707 C 183.551 144.505,183.611 144.340,183.810 144.340 C 184.008 144.340,184.132 144.149,184.085 143.915 C 184.038 143.681,184.191 143.528,184.426 143.574 C 184.660 143.621,184.851 143.497,184.851 143.299 C 184.851 143.101,184.988 143.023,185.155 143.126 C 185.322 143.230,185.554 142.938,185.669 142.478 C 185.805 141.939,186.051 141.707,186.362 141.826 C 186.720 141.964,186.793 141.816,186.645 141.250 C 186.519 140.767,186.576 140.569,186.801 140.709 C 186.997 140.830,187.236 140.624,187.334 140.251 C 187.431 139.879,187.755 139.574,188.053 139.574 C 188.352 139.574,188.596 139.336,188.596 139.044 C 188.596 138.752,188.711 138.579,188.851 138.659 C 188.991 138.740,189.489 138.423,189.957 137.954 C 190.426 137.485,190.617 137.208,190.383 137.337 C 189.744 137.690,189.870 137.376,190.653 136.668 C 191.331 136.054,191.343 136.055,191.138 136.700 C 190.938 137.328,190.949 137.327,191.351 136.681 C 191.926 135.758,193.437 134.469,193.945 134.469 C 194.173 134.468,194.522 134.164,194.721 133.791 C 194.920 133.419,195.471 133.017,195.945 132.898 C 196.507 132.757,196.742 132.513,196.620 132.196 C 196.517 131.928,196.571 131.794,196.739 131.898 C 197.152 132.153,198.166 131.742,197.958 131.405 C 197.867 131.257,198.139 131.049,198.562 130.943 C 198.986 130.837,199.674 130.431,200.092 130.042 C 200.509 129.653,200.851 129.505,200.851 129.713 C 200.851 129.924,201.088 129.854,201.386 129.556 C 201.680 129.262,202.072 129.021,202.257 129.021 C 202.442 129.021,202.489 128.853,202.362 128.647 C 202.200 128.385,202.323 128.369,202.767 128.592 C 203.198 128.809,203.680 128.766,204.255 128.461 C 204.723 128.213,204.953 128.002,204.766 127.993 C 204.292 127.969,206.026 127.006,206.570 126.991 C 206.813 126.984,207.646 126.672,208.421 126.298 C 209.196 125.923,210.057 125.617,210.335 125.617 C 210.613 125.617,211.146 125.349,211.520 125.021 C 212.174 124.449,212.192 124.452,211.972 125.106 C 211.755 125.751,211.768 125.755,212.222 125.171 C 212.525 124.781,212.782 124.687,212.924 124.916 C 213.046 125.114,213.300 125.277,213.487 125.277 C 213.674 125.277,213.733 125.123,213.617 124.936 C 213.412 124.605,213.858 124.458,214.723 124.570 C 214.957 124.601,215.149 124.447,215.149 124.229 C 215.149 123.938,215.286 123.945,215.660 124.255 C 216.074 124.599,216.170 124.585,216.170 124.184 C 216.170 123.800,216.592 123.708,218.043 123.775 C 219.072 123.823,219.915 123.725,219.915 123.559 C 219.915 123.392,220.116 123.333,220.363 123.427 C 220.609 123.522,221.183 123.452,221.639 123.272 C 222.288 123.015,229.007 123.002,234.305 123.247 M100.084 207.149 L 100.088 287.319 75.576 287.319 L 51.064 287.319 51.064 207.321 L 51.064 127.324 75.489 127.234 C 88.923 127.185,99.952 127.107,99.997 127.062 C 100.042 127.016,100.081 163.055,100.084 207.149 M371.410 293.787 C 371.406 294.163,371.048 294.285,370.054 294.248 C 369.201 294.216,368.731 294.342,368.778 294.588 C 368.818 294.803,368.568 294.930,368.221 294.871 C 367.875 294.812,367.682 294.910,367.794 295.090 C 367.905 295.271,367.759 295.509,367.470 295.620 C 367.113 295.757,367.025 295.686,367.197 295.400 C 367.397 295.066,367.341 295.067,366.928 295.401 C 366.640 295.634,366.308 295.727,366.190 295.608 C 366.071 295.490,365.664 295.759,365.284 296.207 C 364.682 296.918,364.620 296.935,364.793 296.340 C 364.989 295.669,364.984 295.669,364.453 296.320 C 364.157 296.684,363.915 297.100,363.915 297.246 C 363.915 297.391,363.723 297.438,363.489 297.349 C 363.255 297.260,362.623 297.568,362.083 298.033 C 361.544 298.498,360.931 298.776,360.722 298.651 C 360.512 298.525,360.570 298.710,360.851 299.062 C 361.308 299.635,361.305 299.681,360.827 299.502 C 360.506 299.382,360.127 299.566,359.879 299.962 C 359.653 300.325,359.319 300.531,359.138 300.419 C 358.957 300.307,358.809 300.531,358.809 300.916 C 358.809 301.390,358.588 301.617,358.128 301.617 C 357.753 301.617,357.447 301.779,357.447 301.978 C 357.447 302.176,357.638 302.226,357.872 302.089 C 358.106 301.952,358.030 302.147,357.702 302.521 C 357.374 302.896,357.106 303.377,357.106 303.591 C 357.106 303.804,356.870 303.888,356.581 303.777 C 356.170 303.619,356.091 303.768,356.219 304.469 C 356.366 305.281,356.140 305.523,355.340 305.409 C 355.211 305.391,355.165 305.686,355.238 306.065 C 355.415 306.984,355.080 307.795,354.635 307.520 C 354.439 307.398,354.370 307.449,354.483 307.631 C 354.596 307.814,354.473 308.379,354.210 308.887 C 353.946 309.394,353.878 309.719,354.057 309.608 C 354.236 309.497,354.383 309.569,354.383 309.767 C 354.383 309.965,354.213 310.128,354.006 310.128 C 353.799 310.128,353.710 310.339,353.809 310.597 C 353.908 310.855,353.810 311.245,353.590 311.465 C 353.371 311.684,353.183 311.971,353.173 312.102 C 352.993 314.425,352.606 318.018,352.452 318.802 C 352.275 319.697,352.315 319.764,352.789 319.371 C 353.260 318.980,353.306 319.037,353.161 319.837 C 353.070 320.339,353.168 320.958,353.378 321.211 C 353.589 321.465,353.661 321.834,353.538 322.032 C 353.416 322.230,353.541 322.842,353.815 323.392 C 354.176 324.115,354.206 324.438,353.923 324.559 C 353.666 324.669,353.725 324.850,354.096 325.086 C 354.460 325.318,354.592 325.706,354.468 326.180 C 354.345 326.649,354.406 326.834,354.637 326.692 C 354.841 326.566,355.152 326.912,355.353 327.490 C 355.549 328.051,355.909 328.513,356.153 328.516 C 356.472 328.520,356.453 328.614,356.085 328.851 C 355.656 329.129,355.676 329.182,356.212 329.186 C 356.744 329.191,356.778 329.277,356.419 329.710 C 356.061 330.141,356.079 330.194,356.523 330.023 C 356.939 329.864,357.018 329.994,356.882 330.611 C 356.742 331.244,356.781 331.301,357.072 330.894 C 357.374 330.470,357.437 330.513,357.442 331.149 C 357.444 331.570,357.577 331.877,357.735 331.830 C 358.075 331.730,360.151 333.863,359.930 334.085 C 359.846 334.168,360.096 334.337,360.485 334.460 C 360.874 334.583,361.191 334.904,361.191 335.172 C 361.191 335.440,361.403 335.660,361.660 335.660 C 361.918 335.660,362.323 335.893,362.560 336.178 C 362.797 336.464,363.058 336.630,363.141 336.547 C 363.304 336.384,364.290 337.130,365.339 338.213 L 366.000 338.894 365.780 338.213 C 365.590 337.622,365.622 337.600,366.016 338.043 C 366.266 338.323,366.700 338.603,366.980 338.664 C 367.260 338.725,367.534 338.895,367.587 339.043 C 367.641 339.191,368.145 339.258,368.707 339.193 C 369.336 339.120,369.794 339.248,369.902 339.529 C 370.008 339.806,370.542 339.961,371.268 339.924 C 371.923 339.892,372.543 340.001,372.646 340.166 C 372.875 340.537,380.898 340.422,381.131 340.045 C 381.223 339.896,381.525 339.861,381.802 339.968 C 382.080 340.074,382.496 340.012,382.728 339.830 C 382.959 339.647,383.570 339.397,384.085 339.274 C 384.600 339.151,385.021 338.905,385.021 338.728 C 385.021 338.550,385.251 338.493,385.532 338.600 C 385.814 338.709,386.043 338.610,386.043 338.380 C 386.043 338.131,386.316 338.035,386.723 338.141 C 387.098 338.239,387.404 338.180,387.404 338.011 C 387.404 337.841,387.634 337.702,387.915 337.702 C 388.196 337.702,388.426 337.456,388.426 337.155 C 388.426 336.740,388.633 336.659,389.279 336.821 C 389.748 336.939,390.113 336.917,390.090 336.773 C 389.958 335.961,390.146 335.502,390.428 335.947 C 390.643 336.286,390.775 336.179,390.937 335.534 C 391.096 334.900,391.310 334.721,391.719 334.878 C 392.071 335.013,392.198 334.959,392.058 334.732 C 391.932 334.528,392.203 334.278,392.683 334.157 C 393.435 333.969,393.729 333.402,393.558 332.469 C 393.528 332.305,393.740 332.262,394.029 332.373 C 394.498 332.553,394.709 332.222,394.594 331.489 C 394.571 331.349,394.774 331.234,395.044 331.234 C 395.314 331.234,395.644 331.057,395.777 330.841 C 395.937 330.582,395.857 330.533,395.542 330.698 C 395.279 330.836,395.494 330.553,396.019 330.070 C 396.544 329.587,396.800 329.191,396.586 329.191 C 396.373 329.191,396.253 329.027,396.321 328.826 C 396.388 328.624,396.592 328.458,396.774 328.456 C 397.272 328.451,397.961 327.799,397.931 327.363 C 397.914 327.123,397.839 327.140,397.731 327.406 C 397.636 327.642,397.420 327.748,397.251 327.644 C 397.081 327.539,397.132 327.248,397.365 326.996 C 397.597 326.745,397.870 326.589,397.970 326.649 C 398.071 326.710,398.187 326.349,398.229 325.848 C 398.270 325.346,398.456 324.885,398.641 324.823 C 398.827 324.760,398.979 324.365,398.979 323.943 C 398.979 323.522,399.094 323.062,399.234 322.922 C 399.811 322.345,399.933 314.010,399.373 313.449 C 399.156 313.233,398.981 312.894,398.984 312.698 C 398.987 312.501,399.138 312.570,399.319 312.851 C 399.517 313.158,399.651 313.200,399.654 312.956 C 399.657 312.733,399.513 312.460,399.334 312.350 C 399.155 312.239,399.089 311.939,399.187 311.683 C 399.285 311.427,399.216 311.126,399.034 311.013 C 398.851 310.900,398.782 310.502,398.880 310.127 C 398.980 309.747,398.890 309.447,398.678 309.447 C 398.469 309.447,398.298 309.073,398.298 308.616 C 398.298 308.159,398.134 307.684,397.934 307.560 C 397.734 307.437,397.650 307.129,397.747 306.877 C 397.858 306.586,397.747 306.485,397.443 306.602 C 397.101 306.733,397.003 306.577,397.104 306.057 C 397.184 305.640,397.041 305.250,396.771 305.146 C 396.511 305.047,396.382 304.748,396.483 304.482 C 396.598 304.185,396.451 304.000,396.101 304.000 C 395.790 304.000,395.629 303.847,395.745 303.660 C 395.860 303.472,395.793 303.319,395.595 303.319 C 395.396 303.319,395.234 303.159,395.234 302.963 C 395.234 302.768,394.848 302.221,394.376 301.750 C 393.905 301.278,393.601 300.759,393.701 300.597 C 393.801 300.435,393.704 300.192,393.485 300.056 C 393.222 299.893,393.178 299.958,393.356 300.247 C 393.538 300.540,393.471 300.627,393.154 300.512 C 392.894 300.418,392.721 300.164,392.769 299.948 C 392.818 299.732,392.627 299.467,392.346 299.359 C 392.064 299.251,391.910 299.039,392.004 298.888 C 392.097 298.737,391.905 298.653,391.576 298.702 C 391.248 298.752,390.793 298.529,390.567 298.209 C 390.340 297.888,389.689 297.433,389.120 297.197 C 388.551 296.961,388.085 296.539,388.085 296.257 C 388.085 295.842,387.990 295.826,387.574 296.170 C 387.162 296.513,387.064 296.502,387.064 296.114 C 387.064 295.825,386.658 295.603,386.043 295.556 C 385.482 295.514,384.482 295.175,383.820 294.803 C 383.159 294.432,382.316 294.128,381.947 294.128 C 381.578 294.128,381.274 293.936,381.271 293.702 C 381.268 293.391,381.187 293.401,380.972 293.741 C 380.724 294.132,380.645 294.132,380.467 293.741 C 380.302 293.379,380.211 293.371,380.056 293.704 C 379.946 293.939,379.692 294.030,379.490 293.905 C 378.944 293.568,372.389 293.571,372.180 293.909 C 372.081 294.069,371.868 293.993,371.707 293.738 C 371.469 293.362,371.414 293.371,371.410 293.787 M377.957 297.059 C 378.098 297.085,378.605 297.126,379.084 297.149 C 379.570 297.173,379.862 297.342,379.745 297.532 C 379.446 298.014,380.030 297.955,380.578 297.447 C 380.946 297.105,380.986 297.109,380.782 297.470 C 380.622 297.751,380.698 297.894,380.987 297.855 C 381.908 297.728,382.333 297.881,382.101 298.255 C 381.937 298.521,382.238 298.595,383.079 298.497 C 383.805 298.412,384.268 298.497,384.232 298.709 C 384.198 298.904,384.440 299.018,384.771 298.963 C 385.101 298.907,385.461 299.098,385.572 299.386 C 385.683 299.675,385.934 299.812,386.130 299.691 C 386.326 299.570,386.655 299.699,386.860 299.977 C 387.290 300.560,388.813 301.456,389.191 301.349 C 389.332 301.309,389.447 301.609,389.447 302.014 C 389.447 302.420,389.549 302.649,389.675 302.524 C 389.973 302.226,391.185 303.326,390.960 303.691 C 390.864 303.845,391.251 304.211,391.819 304.505 C 392.877 305.052,393.184 305.676,392.426 305.736 C 392.191 305.755,392.383 305.880,392.851 306.014 C 393.398 306.171,393.666 306.465,393.601 306.836 C 393.545 307.153,393.734 307.503,394.020 307.613 C 394.433 307.771,394.463 307.958,394.167 308.511 C 393.842 309.118,393.875 309.178,394.418 308.970 C 394.762 308.838,394.939 308.834,394.812 308.961 C 394.684 309.089,394.810 309.637,395.091 310.181 C 395.372 310.724,395.510 311.319,395.397 311.502 C 395.283 311.685,395.398 311.914,395.652 312.012 C 396.008 312.148,396.082 312.897,395.976 315.287 C 395.867 317.745,395.929 318.329,396.275 318.115 C 396.600 317.915,396.643 318.012,396.444 318.497 C 396.297 318.856,396.118 319.592,396.047 320.134 C 395.975 320.676,395.754 321.316,395.555 321.556 C 395.356 321.796,395.220 322.195,395.254 322.443 C 395.395 323.486,395.241 323.943,394.920 323.436 C 394.721 323.121,394.650 323.441,394.713 324.366 C 394.765 325.141,394.674 325.692,394.511 325.591 C 394.347 325.489,394.194 325.569,394.170 325.767 C 394.147 325.965,394.105 326.319,394.077 326.553 C 394.050 326.787,393.776 326.937,393.468 326.885 C 393.054 326.816,392.934 327.015,393.004 327.651 C 393.063 328.196,392.928 328.511,392.634 328.511 C 392.379 328.511,392.170 328.675,392.170 328.875 C 392.170 329.420,391.270 330.216,390.965 329.941 C 390.819 329.810,390.792 329.866,390.906 330.066 C 391.020 330.266,390.747 330.824,390.300 331.306 C 389.853 331.788,389.580 332.275,389.694 332.389 C 389.808 332.503,389.562 332.596,389.148 332.596 C 388.733 332.596,388.019 332.972,387.559 333.431 C 387.099 333.891,386.719 334.159,386.713 334.027 C 386.707 333.895,386.546 334.056,386.354 334.385 C 386.070 334.873,385.874 334.913,385.292 334.601 C 384.682 334.275,384.610 334.302,384.796 334.787 C 384.931 335.139,384.878 335.271,384.656 335.133 C 384.459 335.012,384.039 335.121,383.723 335.377 C 383.407 335.632,382.843 335.835,382.468 335.827 C 382.094 335.819,381.580 336.013,381.326 336.258 C 381.072 336.503,380.587 336.616,380.248 336.508 C 379.909 336.401,379.532 336.475,379.409 336.673 C 379.287 336.870,379.044 336.944,378.870 336.837 C 378.696 336.729,378.554 336.765,378.554 336.916 C 378.554 337.068,377.558 337.140,376.339 337.077 C 375.120 337.014,374.210 336.823,374.315 336.653 C 374.421 336.481,374.109 336.494,373.617 336.681 C 372.988 336.920,372.794 336.911,372.955 336.651 C 373.105 336.408,372.736 336.304,371.868 336.345 C 370.015 336.432,369.803 336.378,370.383 335.972 C 370.783 335.693,370.727 335.662,370.128 335.830 C 369.612 335.975,369.361 335.899,369.359 335.597 C 369.358 335.351,368.975 334.972,368.508 334.755 C 367.594 334.332,367.399 334.574,368.085 335.281 C 368.319 335.522,367.898 335.367,367.149 334.935 C 366.400 334.504,365.584 333.916,365.336 333.629 C 365.089 333.341,364.983 333.298,365.101 333.532 C 365.220 333.766,365.227 333.957,365.118 333.957 C 365.009 333.957,364.772 333.571,364.592 333.098 C 364.413 332.625,364.018 332.143,363.716 332.027 C 363.413 331.911,362.805 331.455,362.364 331.014 C 361.924 330.573,361.394 330.213,361.187 330.213 C 360.980 330.213,360.913 330.047,361.038 329.845 C 361.163 329.643,360.782 329.005,360.192 328.428 C 359.602 327.851,359.197 327.174,359.293 326.923 C 359.514 326.348,358.933 326.320,358.670 326.894 C 358.562 327.128,358.554 326.993,358.652 326.594 C 358.764 326.134,358.640 325.795,358.314 325.670 C 358.030 325.562,357.884 325.249,357.989 324.977 C 358.094 324.704,357.941 324.116,357.649 323.671 C 357.357 323.226,357.185 322.520,357.265 322.103 C 357.347 321.678,357.269 321.431,357.089 321.543 C 356.905 321.656,356.766 321.137,356.766 320.340 C 356.766 319.569,356.638 319.018,356.481 319.115 C 356.324 319.212,356.163 318.392,356.124 317.293 C 356.084 316.185,356.211 315.197,356.409 315.074 C 356.605 314.953,356.766 314.700,356.766 314.513 C 356.766 314.326,356.597 314.277,356.392 314.404 C 356.126 314.568,356.116 314.450,356.358 313.999 C 356.706 313.349,356.766 313.126,356.766 312.491 C 356.766 312.292,356.957 312.245,357.191 312.386 C 357.439 312.535,357.404 312.374,357.106 312.000 C 356.809 311.626,356.773 311.465,357.021 311.614 C 357.322 311.795,357.447 311.585,357.447 310.897 C 357.447 310.361,357.604 309.767,357.795 309.575 C 357.987 309.383,358.209 308.885,358.290 308.468 C 358.370 308.051,358.788 307.400,359.218 307.020 C 359.648 306.641,359.797 306.435,359.549 306.563 C 359.179 306.753,359.176 306.670,359.532 306.100 C 359.771 305.718,360.115 305.498,360.296 305.610 C 360.487 305.728,360.534 305.574,360.409 305.247 C 360.269 304.884,360.364 304.681,360.672 304.681 C 360.937 304.681,361.367 304.375,361.628 304.002 C 361.890 303.629,362.194 303.414,362.305 303.525 C 362.416 303.636,362.424 303.408,362.322 303.018 C 362.185 302.494,362.346 302.228,362.941 301.996 C 363.383 301.824,364.089 301.355,364.511 300.956 C 364.932 300.556,365.277 300.322,365.277 300.437 C 365.277 300.551,365.511 300.410,365.797 300.124 C 366.083 299.838,366.568 299.700,366.874 299.817 C 367.209 299.945,367.345 299.892,367.216 299.683 C 367.096 299.489,367.597 299.139,368.352 298.890 C 369.148 298.627,369.702 298.229,369.702 297.920 C 369.702 297.571,369.816 297.509,370.042 297.736 C 370.456 298.150,372.837 297.923,372.573 297.495 C 372.363 297.156,372.802 297.109,375.441 297.189 C 376.809 297.230,377.199 297.139,377.005 296.825 C 376.821 296.527,376.885 296.493,377.224 296.708 C 377.487 296.875,377.817 297.032,377.957 297.059 M367.660 316.758 C 367.660 325.282,367.773 329.191,368.020 329.191 C 368.218 329.191,368.309 329.306,368.223 329.447 C 368.136 329.587,368.955 329.702,370.044 329.702 L 372.023 329.702 371.969 324.426 L 371.915 319.149 373.736 319.195 C 375.306 319.235,377.713 320.340,376.230 320.340 C 375.893 320.340,375.896 320.441,376.242 320.813 C 376.563 321.159,376.757 321.182,376.966 320.898 C 377.136 320.666,377.183 320.818,377.083 321.277 C 376.984 321.725,377.052 321.958,377.246 321.839 C 377.429 321.726,377.659 321.945,377.759 322.325 C 377.858 322.706,378.154 323.099,378.417 323.200 C 378.679 323.301,378.894 323.694,378.894 324.074 C 378.894 324.455,379.047 324.766,379.234 324.766 C 379.421 324.766,379.574 325.005,379.574 325.297 C 379.574 325.589,379.696 325.752,379.844 325.661 C 379.993 325.569,380.137 325.803,380.166 326.180 C 380.194 326.557,380.550 327.155,380.958 327.508 C 381.399 327.890,381.615 328.366,381.493 328.684 C 381.088 329.740,385.704 330.154,386.349 329.120 C 386.734 328.503,386.498 327.378,386.043 327.660 C 385.895 327.751,385.689 327.605,385.585 327.335 C 385.450 326.984,385.562 326.906,385.975 327.061 C 386.293 327.181,386.054 326.778,385.444 326.164 C 384.835 325.551,384.438 324.883,384.564 324.680 C 384.707 324.449,384.592 324.387,384.260 324.514 C 383.636 324.753,383.163 323.531,383.781 323.277 C 383.995 323.189,383.826 323.105,383.404 323.091 C 382.695 323.066,382.426 322.526,382.626 321.532 C 382.664 321.345,382.587 321.299,382.456 321.431 C 382.113 321.774,381.278 320.842,381.271 320.109 C 381.267 319.585,381.216 319.568,380.936 320.000 C 380.747 320.293,380.604 320.341,380.601 320.113 C 380.598 319.894,380.495 319.435,380.371 319.092 C 380.248 318.749,380.274 318.583,380.429 318.724 C 380.584 318.865,381.018 318.712,381.393 318.384 C 381.768 318.056,381.973 317.962,381.848 318.177 C 381.702 318.427,381.909 318.549,382.427 318.517 C 382.986 318.483,383.177 318.312,383.051 317.957 C 382.952 317.677,382.990 317.555,383.137 317.687 C 383.486 318.003,385.703 316.307,385.606 315.798 C 385.565 315.581,385.719 315.441,385.948 315.486 C 386.256 315.547,386.278 315.343,386.034 314.701 C 385.809 314.109,385.816 313.903,386.058 314.052 C 386.294 314.198,386.393 313.242,386.355 311.178 C 386.324 309.477,386.164 308.085,386.000 308.085 C 385.836 308.085,385.702 307.855,385.702 307.574 C 385.702 307.294,385.566 307.064,385.399 307.064 C 385.232 307.064,385.003 306.695,384.889 306.244 C 384.741 305.655,384.507 305.471,384.052 305.590 C 383.705 305.681,383.168 305.502,382.859 305.194 C 382.550 304.885,382.298 304.739,382.298 304.868 C 382.298 304.998,382.103 304.943,381.865 304.746 C 381.596 304.522,378.828 304.375,374.546 304.356 L 367.660 304.325 367.660 316.758 M368.255 322.957 C 368.199 326.292,368.153 323.660,368.153 317.106 C 368.153 310.553,368.199 307.824,368.255 311.042 C 368.311 314.260,368.311 319.621,368.255 322.957 M378.554 307.988 C 378.553 307.841,378.821 307.864,379.149 308.040 C 379.477 308.215,379.898 308.412,380.085 308.477 C 380.272 308.542,380.374 308.749,380.312 308.936 C 380.250 309.123,380.314 309.161,380.455 309.021 C 380.969 308.506,381.997 309.838,381.531 310.415 C 381.192 310.834,381.192 310.888,381.532 310.684 C 381.835 310.501,381.957 310.727,381.957 311.469 C 381.957 312.073,381.778 312.513,381.532 312.516 C 381.204 312.520,381.208 312.585,381.548 312.801 C 381.901 313.025,381.885 313.168,381.467 313.515 C 381.179 313.754,381.041 314.108,381.161 314.301 C 381.303 314.530,381.035 314.572,380.391 314.422 C 379.848 314.296,379.590 314.317,379.816 314.469 C 380.117 314.672,380.048 314.860,379.561 315.164 C 379.083 315.462,378.894 315.471,378.894 315.195 C 378.894 314.941,378.698 314.969,378.318 315.277 C 378.001 315.534,377.833 315.591,377.945 315.404 C 378.076 315.184,377.084 315.106,375.139 315.182 L 372.129 315.300 372.022 311.608 L 371.915 307.915 375.235 308.085 C 377.061 308.179,378.554 308.135,378.554 307.988 M356.523 317.106 C 356.525 318.043,356.592 318.385,356.670 317.868 C 356.748 317.350,356.746 316.584,356.665 316.166 C 356.584 315.747,356.520 316.170,356.523 317.106 " stroke="none" fill="#2c64b4" fill-rule="evenodd"></path><path id="path1" d="M11.631 3.291 C 11.083 3.878,11.603 3.878,12.406 3.291 C 12.857 2.961,12.894 2.837,12.541 2.837 C 12.274 2.837,11.864 3.041,11.631 3.291 M330.128 6.727 C 330.455 7.057,331.087 7.708,331.531 8.174 L 332.339 9.021 331.903 8.170 C 331.433 7.251,330.287 6.128,329.820 6.128 C 329.662 6.128,329.800 6.397,330.128 6.727 M3.287 11.911 C 3.006 12.475,2.917 12.936,3.090 12.936 C 3.263 12.936,3.404 12.794,3.404 12.620 C 3.404 12.446,3.635 12.073,3.918 11.791 C 4.200 11.508,4.289 11.190,4.114 11.082 C 3.940 10.974,3.568 11.348,3.287 11.911 M335.413 13.617 C 335.441 13.991,335.575 14.298,335.711 14.298 C 335.847 14.298,335.935 13.991,335.906 13.617 C 335.878 13.243,335.744 12.936,335.608 12.936 C 335.473 12.936,335.385 13.243,335.413 13.617 M72.367 47.363 C 72.468 47.526,73.853 47.660,75.444 47.660 C 77.357 47.660,78.264 47.540,78.120 47.306 C 77.992 47.100,76.713 46.976,75.042 47.009 C 73.470 47.040,72.266 47.199,72.367 47.363 M68.936 47.817 L 67.915 48.285 68.965 48.313 C 69.683 48.332,70.014 48.179,70.014 47.830 C 70.014 47.549,70.001 47.326,69.986 47.335 C 69.970 47.343,69.498 47.560,68.936 47.817 M88.539 50.517 C 88.966 50.919,91.337 52.096,91.464 51.969 C 91.546 51.886,91.145 51.612,90.573 51.358 C 90.000 51.105,89.532 50.782,89.532 50.640 C 89.532 50.499,89.277 50.383,88.965 50.383 C 88.652 50.383,88.461 50.443,88.539 50.517 M51.221 60.426 C 51.077 60.800,50.884 61.260,50.793 61.447 C 50.702 61.634,50.897 61.534,51.226 61.225 C 51.555 60.916,51.747 60.456,51.654 60.204 C 51.534 59.880,51.406 59.946,51.221 60.426 M99.149 60.389 C 99.477 60.638,99.745 61.101,99.745 61.419 C 99.745 61.737,99.885 61.911,100.056 61.805 C 100.227 61.699,100.445 61.805,100.540 62.040 C 100.644 62.299,100.723 62.318,100.739 62.088 C 100.778 61.545,99.430 59.913,98.954 59.926 C 98.734 59.932,98.821 60.140,99.149 60.389 M103.763 73.106 C 103.704 73.247,103.745 74.434,103.853 75.745 L 104.050 78.128 104.110 75.489 C 104.165 73.100,104.062 72.393,103.763 73.106 M103.370 81.101 C 103.261 81.519,103.281 81.970,103.415 82.104 C 103.550 82.237,103.692 81.895,103.731 81.344 C 103.816 80.153,103.647 80.040,103.370 81.101 M99.529 90.384 C 99.235 91.007,99.249 91.142,99.593 91.009 C 100.121 90.807,100.495 89.955,100.150 89.742 C 100.014 89.658,99.735 89.947,99.529 90.384 M54.809 95.445 C 54.809 96.005,55.420 96.524,55.723 96.221 C 55.826 96.117,55.663 95.784,55.360 95.481 C 54.884 95.005,54.809 95.000,54.809 95.445 M92.647 97.932 C 92.090 98.531,92.223 98.712,93.009 98.425 C 93.338 98.305,93.486 98.044,93.349 97.825 C 93.175 97.547,92.976 97.577,92.647 97.932 M76.936 104.096 C 76.936 104.416,78.537 104.385,78.863 104.059 C 78.989 103.933,78.607 103.830,78.014 103.830 C 77.421 103.830,76.936 103.950,76.936 104.096 M225.277 123.146 C 226.447 123.212,228.362 123.212,229.532 123.146 C 230.702 123.079,229.745 123.025,227.404 123.025 C 225.064 123.025,224.106 123.079,225.277 123.146 M234.213 123.557 C 234.213 123.677,234.761 123.813,235.432 123.858 C 236.151 123.906,236.568 123.805,236.447 123.610 C 236.225 123.249,234.213 123.201,234.213 123.557 M75.404 127.319 L 50.894 127.496 75.318 127.578 L 99.743 127.660 99.830 207.404 L 99.918 287.149 99.999 207.064 C 100.043 163.017,100.042 127.015,99.997 127.060 C 99.952 127.105,88.885 127.222,75.404 127.319 M155.915 127.319 L 132.596 127.496 155.980 127.578 C 171.291 127.631,179.437 127.542,179.574 127.319 C 179.690 127.132,179.661 127.015,179.509 127.060 C 179.358 127.105,168.740 127.222,155.915 127.319 M263.830 132.384 C 263.830 132.709,265.471 133.621,265.680 133.413 C 265.761 133.331,265.379 133.006,264.829 132.690 C 264.279 132.375,263.830 132.237,263.830 132.384 M190.499 136.817 C 190.059 137.304,190.016 137.528,190.328 137.721 C 190.593 137.885,190.656 137.836,190.501 137.585 C 190.367 137.368,190.404 137.191,190.582 137.191 C 190.760 137.191,190.994 136.962,191.102 136.681 C 191.363 136.001,191.205 136.037,190.499 136.817 M271.196 138.383 C 271.304 138.664,271.538 138.894,271.716 138.894 C 271.894 138.894,271.955 139.031,271.852 139.198 C 271.646 139.531,272.667 140.043,272.957 139.753 C 273.055 139.655,272.930 139.574,272.681 139.574 C 272.431 139.574,272.326 139.475,272.448 139.354 C 272.569 139.232,272.341 138.849,271.942 138.503 C 271.061 137.739,270.942 137.720,271.196 138.383 M272.873 140.972 C 272.980 141.145,273.211 141.200,273.385 141.092 C 273.560 140.984,273.702 141.058,273.702 141.257 C 273.702 141.455,273.886 141.617,274.111 141.617 C 274.426 141.617,274.427 141.525,274.114 141.212 C 273.626 140.724,272.597 140.524,272.873 140.972 M215.341 166.504 C 215.569 166.872,216.851 166.914,216.851 166.553 C 216.851 166.413,216.469 166.276,216.002 166.249 C 215.535 166.222,215.238 166.337,215.341 166.504 M197.617 168.511 C 196.961 168.793,196.963 168.804,197.682 168.827 C 198.092 168.840,198.523 168.698,198.638 168.511 C 198.887 168.108,198.554 168.108,197.617 168.511 M223.319 168.471 C 223.319 168.636,223.587 168.866,223.915 168.982 C 224.243 169.097,224.740 169.289,225.021 169.408 C 225.302 169.527,225.125 169.297,224.627 168.897 C 223.647 168.109,223.319 168.003,223.319 168.471 M195.414 169.809 C 195.032 170.218,195.088 170.253,195.780 170.043 C 196.883 169.709,197.371 169.214,196.536 169.277 C 196.166 169.305,195.662 169.544,195.414 169.809 M191.263 172.825 C 190.951 172.907,190.603 173.218,190.489 173.515 C 190.190 174.295,190.363 174.265,191.288 173.380 C 191.739 172.949,192.045 172.614,191.969 172.635 C 191.892 172.657,191.575 172.742,191.263 172.825 M237.015 187.574 C 237.015 188.230,237.085 188.498,237.171 188.170 C 237.256 187.843,237.256 187.306,237.171 186.979 C 237.085 186.651,237.015 186.919,237.015 187.574 M237.590 192.256 C 237.753 193.430,237.776 193.454,237.889 192.554 C 237.956 192.017,237.876 191.442,237.712 191.278 C 237.541 191.107,237.489 191.524,237.590 192.256 M237.861 195.319 C 237.786 195.460,237.838 195.957,237.977 196.426 C 238.213 197.221,238.232 197.204,238.264 196.170 C 238.297 195.103,238.146 194.786,237.861 195.319 M238.036 199.149 C 238.036 199.804,238.106 200.072,238.192 199.745 C 238.278 199.417,238.278 198.881,238.192 198.553 C 238.106 198.226,238.036 198.494,238.036 199.149 M375.410 293.694 C 376.022 293.769,376.941 293.768,377.453 293.690 C 377.964 293.612,377.464 293.550,376.340 293.552 C 375.217 293.554,374.798 293.618,375.410 293.694 M363.149 301.842 C 362.153 302.367,361.807 303.453,362.752 303.091 C 363.186 302.924,363.203 302.828,362.837 302.596 C 362.508 302.387,362.583 302.307,363.113 302.303 C 363.514 302.300,363.930 302.068,364.038 301.787 C 364.146 301.506,364.200 301.293,364.160 301.313 C 364.119 301.333,363.664 301.571,363.149 301.842 M368.153 317.106 C 368.153 323.660,368.199 326.292,368.255 322.957 C 368.311 319.621,368.311 314.260,368.255 311.042 C 368.199 307.824,368.153 310.553,368.153 317.106 M397.021 306.120 C 397.068 306.349,397.299 306.744,397.535 306.998 C 397.771 307.252,397.862 307.624,397.738 307.825 C 397.604 308.041,397.672 308.091,397.904 307.948 C 398.191 307.771,398.157 307.438,397.777 306.704 C 397.243 305.672,396.871 305.384,397.021 306.120 M358.663 307.599 C 358.351 307.911,358.183 308.254,358.290 308.361 C 358.397 308.468,358.740 308.300,359.052 307.988 C 359.364 307.676,359.532 307.333,359.425 307.226 C 359.318 307.119,358.975 307.287,358.663 307.599 M380.426 308.712 C 380.796 309.150,381.275 309.916,381.492 310.414 C 381.856 311.249,381.883 311.259,381.849 310.547 C 381.828 310.122,381.349 309.356,380.783 308.845 C 379.999 308.135,379.914 308.104,380.426 308.712 M399.294 311.404 C 399.280 311.545,399.205 311.997,399.128 312.408 C 399.051 312.820,399.101 313.227,399.239 313.311 C 399.377 313.396,399.528 312.944,399.574 312.307 C 399.643 311.367,399.381 310.523,399.294 311.404 M395.245 312.096 C 395.251 312.230,395.472 312.627,395.737 312.976 C 396.201 313.589,396.217 313.586,396.165 312.900 C 396.118 312.269,395.218 311.483,395.245 312.096 M352.553 314.737 C 352.436 315.041,352.361 316.081,352.387 317.049 L 352.434 318.809 352.689 316.596 C 352.953 314.301,352.916 313.790,352.553 314.737 M356.258 315.230 C 356.031 315.598,356.113 319.405,356.343 319.175 C 356.480 319.038,356.662 314.893,356.531 314.893 C 356.495 314.894,356.372 315.045,356.258 315.230 M373.362 315.143 C 374.157 315.215,375.460 315.215,376.255 315.143 C 377.051 315.071,376.400 315.013,374.809 315.013 C 373.217 315.013,372.566 315.071,373.362 315.143 M338.212 315.495 C 338.024 315.632,337.837 316.204,337.797 316.766 L 337.725 317.787 338.017 316.878 C 338.178 316.378,338.412 315.803,338.537 315.601 C 338.800 315.176,338.694 315.141,338.212 315.495 M337.517 318.961 C 337.524 319.498,337.643 319.866,337.781 319.781 C 337.920 319.695,337.988 319.331,337.933 318.970 C 337.771 317.910,337.503 317.904,337.517 318.961 M353.021 321.702 C 353.021 322.338,353.112 322.428,353.430 322.111 C 353.748 321.793,353.748 321.611,353.430 321.294 C 353.112 320.976,353.021 321.067,353.021 321.702 M1.722 322.451 C 2.129 323.871,2.293 323.960,2.249 322.736 C 2.229 322.173,2.035 321.643,1.817 321.559 C 1.531 321.448,1.505 321.696,1.722 322.451 M377.240 322.166 C 377.480 322.702,377.738 322.955,377.814 322.729 C 377.889 322.502,377.693 322.063,377.377 321.754 C 376.839 321.227,376.831 321.254,377.240 322.166 M394.325 325.030 C 394.106 325.169,393.816 325.741,393.681 326.301 C 393.539 326.893,393.563 327.200,393.739 327.035 C 393.906 326.879,394.062 326.611,394.085 326.440 C 394.109 326.268,394.147 325.965,394.170 325.767 C 394.194 325.569,394.340 325.486,394.496 325.582 C 394.652 325.678,394.780 325.534,394.780 325.262 C 394.780 324.989,394.767 324.768,394.752 324.771 C 394.736 324.774,394.544 324.890,394.325 325.030 M397.536 326.797 C 397.221 327.165,397.088 327.543,397.240 327.637 C 397.393 327.731,397.690 327.430,397.900 326.968 C 398.363 325.953,398.289 325.918,397.536 326.797 M386.441 328.884 C 386.196 329.277,386.083 329.685,386.189 329.792 C 386.296 329.899,386.385 329.769,386.388 329.504 C 386.392 329.106,386.452 329.111,386.723 329.532 C 386.981 329.930,387.055 329.836,387.059 329.106 C 387.065 327.982,387.016 327.965,386.441 328.884 M396.434 328.497 C 396.145 328.964,396.401 329.315,396.904 329.142 C 397.110 329.071,397.136 328.831,396.968 328.559 C 396.755 328.217,396.617 328.201,396.434 328.497 M371.745 329.135 C 371.745 329.373,371.099 329.556,370.128 329.591 L 368.511 329.651 370.004 329.783 C 371.421 329.909,372.480 329.473,371.977 328.970 C 371.849 328.842,371.745 328.916,371.745 329.135 M383.919 329.773 C 384.342 329.854,384.955 329.851,385.281 329.766 C 385.606 329.681,385.260 329.614,384.511 329.618 C 383.762 329.622,383.495 329.691,383.919 329.773 M389.457 331.733 C 389.222 332.016,388.870 332.149,388.675 332.029 C 388.469 331.902,388.422 331.974,388.563 332.203 C 388.697 332.419,389.036 332.596,389.317 332.596 C 389.598 332.596,389.741 332.456,389.635 332.284 C 389.529 332.113,389.635 331.904,389.870 331.820 C 390.105 331.736,390.205 331.566,390.091 331.443 C 389.977 331.319,389.692 331.449,389.457 331.733 M365.645 334.066 C 366.834 334.977,368.286 335.562,367.925 334.985 C 367.704 334.631,367.411 334.411,367.275 334.496 C 367.138 334.580,366.930 334.494,366.812 334.303 C 366.694 334.113,366.352 333.957,366.051 333.957 C 365.750 333.957,365.567 334.006,365.645 334.066 M11.574 334.668 C 11.574 334.839,11.868 334.979,12.227 334.979 C 12.586 334.979,12.957 335.170,13.051 335.404 C 13.175 335.711,13.230 335.717,13.250 335.424 C 13.278 334.992,12.700 334.529,12.000 334.423 C 11.766 334.387,11.574 334.498,11.574 334.668 M325.793 334.550 C 325.516 334.659,325.059 334.978,324.778 335.258 C 324.334 335.702,324.333 335.740,324.772 335.544 C 325.050 335.421,325.545 335.225,325.872 335.109 C 326.321 334.951,326.818 334.187,326.383 334.325 C 326.336 334.340,326.071 334.441,325.793 334.550 M369.858 336.110 C 370.225 336.382,370.729 336.527,370.979 336.431 C 371.551 336.211,371.472 336.152,370.213 335.855 C 369.260 335.631,369.236 335.648,369.858 336.110 M319.660 337.362 C 319.660 337.549,319.889 337.702,320.170 337.702 C 320.451 337.702,320.681 337.549,320.681 337.362 C 320.681 337.174,320.451 337.021,320.170 337.021 C 319.889 337.021,319.660 337.174,319.660 337.362 M168.851 338.043 L 21.617 338.214 169.126 338.298 C 267.401 338.355,316.566 338.269,316.426 338.043 C 316.310 337.855,316.186 337.740,316.150 337.787 C 316.114 337.833,249.830 337.948,168.851 338.043 " stroke="none" fill="#2c6cb4" fill-rule="evenodd"></path><path id="path2" d="M103.604 75.915 C 103.604 77.319,103.664 77.894,103.737 77.191 C 103.811 76.489,103.811 75.340,103.737 74.638 C 103.664 73.936,103.604 74.511,103.604 75.915 M51.231 207.489 C 51.231 251.489,51.271 269.540,51.319 247.602 C 51.367 225.664,51.367 189.664,51.319 167.602 C 51.271 145.540,51.231 163.489,51.231 207.489 M179.215 138.213 C 179.215 144.111,179.262 146.523,179.319 143.574 C 179.375 140.626,179.375 135.800,179.319 132.851 C 179.262 129.902,179.215 132.315,179.215 138.213 " stroke="none" fill="#3064b4" fill-rule="evenodd"></path><path id="path3" d="M103.604 75.915 C 103.604 77.319,103.664 77.894,103.737 77.191 C 103.811 76.489,103.811 75.340,103.737 74.638 C 103.664 73.936,103.604 74.511,103.604 75.915 M51.231 207.489 C 51.231 251.489,51.271 269.540,51.319 247.602 C 51.367 225.664,51.367 189.664,51.319 167.602 C 51.271 145.540,51.231 163.489,51.231 207.489 M179.215 138.213 C 179.215 144.111,179.262 146.523,179.319 143.574 C 179.375 140.626,179.375 135.800,179.319 132.851 C 179.262 129.902,179.215 132.315,179.215 138.213 " stroke="none" fill="#3064b4" fill-rule="evenodd"></path><path id="path4" d="M103.604 75.915 C 103.604 77.319,103.664 77.894,103.737 77.191 C 103.811 76.489,103.811 75.340,103.737 74.638 C 103.664 73.936,103.604 74.511,103.604 75.915 M51.231 207.489 C 51.231 251.489,51.271 269.540,51.319 247.602 C 51.367 225.664,51.367 189.664,51.319 167.602 C 51.271 145.540,51.231 163.489,51.231 207.489 M179.215 138.213 C 179.215 144.111,179.262 146.523,179.319 143.574 C 179.375 140.626,179.375 135.800,179.319 132.851 C 179.262 129.902,179.215 132.315,179.215 138.213 " stroke="none" fill="#3064b4" fill-rule="evenodd"></path></g></svg>