<?xml version="1.0" encoding="utf-8"?>
<!-- Generator: Adobe Illustrator 25.4.1, SVG Export Plug-In . SVG Version: 6.00 Build 0)  -->
<svg version="1.1" id="art" xmlns="http://www.w3.org/2000/svg" xmlns:xlink="http://www.w3.org/1999/xlink" x="0px" y="0px"
	 viewBox="0 0 792 229" style="enable-background:new 0 0 792 229;" xml:space="preserve">
<style type="text/css">
	.st0{fill:#576168;}
	.st1{fill:#F7971D;}
</style>
<g>
	<g>
		<path class="st0" d="M317.9,109.5V67.7V30.5h19.3h17.9c5.2,0,10,0.9,14.3,2.7c4.3,1.8,8.3,4.5,12.1,8.2c3.7,3.6,6.4,7.6,8.3,12
			c1.8,4.4,2.7,9.2,2.7,14.3c0,5.2-0.9,10-2.7,14.3c-1.8,4.3-4.6,8.3-8.2,11.9c-3.7,3.7-7.8,6.4-12.2,8.2c-4.4,1.8-9.2,2.7-14.3,2.7
			h-17.9h-4.6v4.6v31.2h-14.7V109.5z M332.6,90.3h4.6l17.9,0.1c3.2,0,6.1-0.5,8.7-1.6c2.6-1,5-2.7,7.3-5c2.1-2.2,3.8-4.7,4.9-7.3
			c1.1-2.5,1.7-5.4,1.7-8.7c0-3.2-0.6-6-1.7-8.6c-1-2.5-2.6-4.9-4.9-7.3c-2.2-2.2-4.6-3.9-7.3-5c-2.7-1.1-5.6-1.7-8.7-1.7h-17.9
			h-4.6v4.6v18v18V90.3z"/>
		<path class="st0" d="M482.1,33.8c6.5,2.7,12.5,6.9,18.2,12.4c5.5,5.5,9.7,11.6,12.4,18.1c2.8,6.7,4.2,13.8,4.2,21.5
			c0,7.7-1.4,14.9-4.2,21.5c-2.7,6.6-6.8,12.6-12.4,18.1c-5.4,5.4-11.5,9.5-18.2,12.3c-6.7,2.7-13.8,4.1-21.4,4.1
			c-7.7,0-14.9-1.4-21.5-4.1c-6.6-2.7-12.6-6.8-18.1-12.3c-5.6-5.5-9.7-11.6-12.3-18.2c-2.7-6.4-4.1-13.6-4.1-21.4
			c0-7.8,1.4-14.9,4.1-21.4c2.6-6.5,6.7-12.5,12.3-18.2c5.5-5.5,11.6-9.7,18.1-12.4c6.4-2.7,13.6-4.1,21.5-4.1
			C468.5,29.7,475.7,31.1,482.1,33.8z M444.9,47.6c-5,2.2-9.4,5.2-13.2,9c-4.1,4.1-7.1,8.5-9,13.3c-2,4.8-3,10.1-3,15.7
			c0,5.7,1,11,3,15.7c1.9,4.8,4.9,9.2,9,13.3c3.8,4,8.2,6.9,13.2,9c4.9,2,10.2,3,15.8,3c5.5,0,10.7-1,15.6-3c4.9-2,9.3-5,13.3-9
			c4-4.1,7.1-8.5,9-13.3c2.1-4.8,3.1-10,3.1-15.7c0-5.6-1-10.8-3.1-15.7c-2-4.7-5-9.2-9-13.3c-4-3.9-8.4-6.9-13.3-9
			c-4.9-2-10.1-3-15.6-3C455.1,44.6,449.9,45.6,444.9,47.6z"/>
		<path class="st0" d="M533.6,42.9l14.7-13.5v111.2h-14.7V42.9z"/>
		<path class="st0" d="M641.4,104.8V91.7V30.5h14.7v111.9l-71.9-76.7v8.4v66.5h-14.7V29.1L641.4,104.8z"/>
		<path class="st0" d="M721.8,30.5h24.7v14.6h-24.7h-4.7v4.6v91h-14.7v-91v-4.6h-4.7h-24.7V30.5h24.7H721.8z"/>
		<path class="st1" d="M47.7,30.5v91v4.7h4.6h43.3v14.5H33V30.5H47.7z"/>
		<path class="st1" d="M192.7,30.5h24.7v14.6h-24.7h-4.7v4.6v91h-14.7v-91v-4.6h-4.7h-24.7V30.5h24.7H192.7z"/>
		<path class="st1" d="M296.9,30.5v14.7h-43.3H249v4.1v24.1V78h4.6h31.3v14.7h-31.3H249v4.6v24.1v4.7h4.6h43.3v14.7h-43.3h-19.3
			V30.5H296.9z"/>
		<path class="st1" d="M112.4,42.9l14.7-13.5v111.2h-14.7V42.9z"/>
	</g>
	<g>
		<path class="st0" d="M462.1,172.8h2.4l8.5,22.4h-2.5l-2.2-5.9h-10l-2.2,5.9h-2.5L462.1,172.8z M467.4,187.2l-4.2-11.3l-4.2,11.3
			H467.4z"/>
		<path class="st0" d="M489.7,175.2h-6.2v-2.2h14.9v2.2h-6.3v20.1h-2.4V175.2z"/>
		<path class="st0" d="M498,187.1v-0.2c0-5.1,3-8.6,6.8-8.6c4.2,0,6.7,3.6,6.7,8.6c0,0.2,0,0.7,0,1h-11.1c0.3,3.7,2.5,5.7,5.1,5.7
			c1.8,0,3.2-0.8,4.3-1.9l1.3,1.5c-1.5,1.5-3.2,2.5-5.7,2.5C501.4,195.6,498,192.3,498,187.1z M509.3,186.1
			c-0.2-3.1-1.7-5.7-4.4-5.7c-2.5,0-4.3,2.3-4.5,5.7H509.3z"/>
		<path class="st0" d="M515.3,178.6h2.3v3.7c1-2.3,3-4,5.7-3.9v2.5h-0.1c-3.1,0-5.6,2.2-5.6,6.4v7.9h-2.3V178.6z"/>
		<path class="st0" d="M524.7,190.4v-0.1c0-3.4,2.5-5.3,6.1-5.3c1.8,0,3,0.3,4.3,0.7v-1c0-2.7-1.6-4.1-4.2-4.1
			c-1.7,0-3.1,0.5-4.2,1.1l-0.7-1.9c1.6-0.8,3.2-1.3,5.2-1.3c2,0,3.6,0.6,4.6,1.7c1,1,1.6,2.5,1.6,4.5v10.7h-2.3v-2.4
			c-1,1.6-2.6,2.8-5.1,2.8C527.2,195.6,524.7,193.7,524.7,190.4z M535.1,189.5v-2.1c-1-0.4-2.4-0.7-4-0.7c-2.6,0-4.1,1.4-4.1,3.5
			v0.1c0,2.1,1.6,3.4,3.5,3.4C533,193.7,535.1,191.9,535.1,189.5z"/>
		<path class="st0" d="M541,187.1v-0.3c0-5.5,3.3-8.5,6.6-8.5c2.6,0,4.3,1.6,5.4,3.4v-9.5h2.3v23H553V192c-1.1,1.9-2.8,3.5-5.4,3.5
			C544.2,195.6,541,192.7,541,187.1z M553.1,187.1v-0.3c0-3.9-2.4-6.4-5-6.4c-2.6,0-4.7,2.3-4.7,6.4v0.3c0,4,2.2,6.4,4.7,6.4
			C550.7,193.5,553.1,191,553.1,187.1z"/>
		<path class="st0" d="M570.5,178.6h2.5l-5.9,16.9c-1.2,3.4-2.6,4.6-4.8,4.6c-1.1,0-2-0.3-3-0.8l0.7-1.9c0.6,0.4,1.3,0.6,2.2,0.6
			c1.2,0,2-0.7,2.9-2.8l-6.4-16.6h2.5l5,13.7L570.5,178.6z"/>
		<path class="st0" d="M576.4,178.6h2.3v2.7c0.9-1.7,2.4-3,4.9-3c3.4,0,5.4,2.3,5.4,6.1v10.9h-2.3V185c0-3-1.4-4.6-3.8-4.6
			c-2.4,0-4.2,1.9-4.2,4.7v10.1h-2.3V178.6z"/>
		<path class="st0" d="M592.6,187.1v-0.2c0-5.1,3-8.6,6.8-8.6c4.2,0,6.7,3.6,6.7,8.6c0,0.2,0,0.7,0,1h-11.1c0.3,3.7,2.5,5.7,5.1,5.7
			c1.8,0,3.2-0.8,4.3-1.9l1.3,1.5c-1.5,1.5-3.2,2.5-5.7,2.5C595.9,195.6,592.6,192.3,592.6,187.1z M603.8,186.1
			c-0.2-3.1-1.7-5.7-4.4-5.7c-2.5,0-4.3,2.3-4.5,5.7H603.8z"/>
		<path class="st0" d="M617.5,184.2V184c0-6.8,4.2-11.4,9.8-11.4c3.1,0,5,1.1,6.8,2.7l-1.5,1.8c-1.4-1.3-3.1-2.3-5.4-2.3
			c-4.1,0-7.3,3.8-7.3,9.1v0.1c0,5.5,3.1,9.2,7.3,9.2c2.3,0,3.9-1,5.5-2.5l1.4,1.7c-1.9,1.9-4,3.1-7.1,3.1
			C621.6,195.6,617.5,191,617.5,184.2z"/>
		<path class="st0" d="M636.4,187.1v-0.2c0-4.8,3.1-8.5,7.4-8.5c4.3,0,7.4,3.7,7.4,8.5v0.2c0,4.8-3.1,8.6-7.4,8.6
			S636.4,191.9,636.4,187.1z M648.8,187v-0.2c0-3.7-2.2-6.5-5.1-6.5c-2.9,0-5,2.8-5,6.5v0.2c0,3.7,2.2,6.5,5,6.5
			C646.7,193.5,648.8,190.7,648.8,187z"/>
		<path class="st0" d="M655,178.6h2.3v2.6c0.9-1.6,2.3-3,4.7-3c2.2,0,3.8,1.2,4.6,3c1-1.6,2.5-3,5.1-3c3.2,0,5.3,2.2,5.3,6.1v10.8
			h-2.3V185c0-3-1.3-4.6-3.6-4.6c-2.2,0-3.9,1.7-3.9,4.7v10.1h-2.3V185c0-3-1.3-4.6-3.6-4.6c-2.2,0-3.9,1.9-3.9,4.7v10.1H655V178.6z
			"/>
		<path class="st0" d="M681.5,178.6h2.3v3.2c1.1-1.9,2.8-3.5,5.4-3.5c3.4,0,6.6,2.9,6.6,8.4v0.3c0,5.5-3.3,8.5-6.6,8.5
			c-2.6,0-4.3-1.6-5.4-3.4v7.9h-2.3V178.6z M693.5,187.1v-0.3c0-4-2.2-6.4-4.7-6.4c-2.6,0-5,2.5-5,6.4v0.3c0,3.9,2.4,6.4,5,6.4
			C691.4,193.5,693.5,191.2,693.5,187.1z"/>
		<path class="st0" d="M698.6,190.4v-0.1c0-3.4,2.5-5.3,6.1-5.3c1.8,0,3,0.3,4.3,0.7v-1c0-2.7-1.6-4.1-4.2-4.1
			c-1.7,0-3.1,0.5-4.2,1.1l-0.7-1.9c1.6-0.8,3.2-1.3,5.2-1.3c2,0,3.6,0.6,4.6,1.7c1,1,1.6,2.5,1.6,4.5v10.7H709v-2.4
			c-1,1.6-2.6,2.8-5.1,2.8C701.2,195.6,698.6,193.7,698.6,190.4z M709.1,189.5v-2.1c-1-0.4-2.4-0.7-4-0.7c-2.6,0-4.1,1.4-4.1,3.5
			v0.1c0,2.1,1.6,3.4,3.5,3.4C707,193.7,709.1,191.9,709.1,189.5z"/>
		<path class="st0" d="M715.8,178.6h2.3v2.7c0.9-1.7,2.4-3,4.9-3c3.4,0,5.4,2.3,5.4,6.1v10.9h-2.3V185c0-3-1.4-4.6-3.8-4.6
			c-2.4,0-4.2,1.9-4.2,4.7v10.1h-2.3V178.6z"/>
		<path class="st0" d="M743,178.6h2.5l-5.9,16.9c-1.2,3.4-2.6,4.6-4.8,4.6c-1.1,0-2-0.3-3-0.8l0.7-1.9c0.6,0.4,1.3,0.6,2.2,0.6
			c1.2,0,2-0.7,2.9-2.8l-6.4-16.6h2.5l5,13.7L743,178.6z"/>
	</g>
</g>
</svg>
